<?xml version="1.0" encoding="UTF-8"?>
<svg version="1.1" viewBox="0 0 1693 2048" width="1280" height="1280" xmlns="http://www.w3.org/2000/svg">
<path transform="translate(0)" d="m0 0h1693v2048h-1693z" fill="#7F8180"/>
<path transform="translate(1048,342)" d="m0 0h45l28 5 16 4 20 8 21 11 17 12 10 9 8 7 8 10 11 17 13 23 10 23 6 20 5 17 5 9 16 2 33 1 12 1-1 3h2l-2 5-1 2 4 4 2 1v2l20 6 51 1v1l-5 1h-100l-54 1-39 2-105 1 4 61 4 53 4 42 2 15 16 4 21 5 28 5 18 1 28-4 34-8 38-11 35-10 9-2h5l-4 2-10 3 2 5-1 2 5 2-1 5-2 3h8l3 3v2l3 1-43 12-38 11-23 6-36 7-16 2h-21l-30-3-27-3 1 17 6 84 5 85 5 88 9 130 7 115 10 173 9 123 3 31 1 5 3 2 85 4 32 1 12 1 2 1 10 1 4 2 1 4h-2v2l2 1h-2v2h13l1 1h10v2l3 1v-2h6l1 1 15 1 6-1 10 2h11l30 2 58 3 2 1 14 1v111l-7 2-11 1-31 1h-65l-71-2-40-2-51-1-131-1-165 1-228-1-108 1-78 2-144 2h-162l-84-2-1-1v-79l1-33h58l13-2 4-3h12l9 1 3 1 4-2h9l13 1h2l-1-3 5 1v2l7-1 9-3h10l11-2 6 1 1-1 15-1 5-1h-2v-2l-9-1v-2l8-2 2 1 1-4 1-2h-23l-23-1-1-2-1-20-1-43v-40l-3-96-2-46v-39l1-29 3-3 3-2 1-2h2l1-3h4l2-4h3l4-4 1-3-7-2-8-2v-2h-5v-1l49-2h-148l-2-6-4-38-3-38-6-84-6-112-3-47-2-38v-32h69l37-1 23-3h10l7-2 12-6 3-6-2-1h2v-2l-17-2-27-1v-2h-7l-1-2-4-108-4-95-1-53 2-30 9-1 2-3 3-1 10-1 6-1 3 1v-2h2v-2h7l-1-3-3 1-7-1-5-3-8-1-1-2-3-1v-2l3-1 25-1 174-2 63-2 42-1 80-1h92l38-1-5-11-7-20-8-17-9-13-7-9-7-7-17-12-18-10-21-7-13-3-8-1h-16l-17 3-16 5-12 5-16 7-5 2h-7l-8-4v-2l-4-1-10-9-3-1-14-16-5-3-4-4-14-11-16-10-19-9-18-5-6-1h-16l-20 6-18 8-19 10-19 13-11 9-20 18-9 9-9 11-13 14-10 6-3 1h-9l-9-6-5-8v-5l8-7 4-5 9-7 8-8 10-8 11-11 8-7 14-12 18-13 20-12 18-10 21-9 13-4 7-1h15l21 3 24 7 20 8 23 12 10 7 13 10 13 13 7 11 13-6 22-8 21-5 5-1h25l18 2 22 6 19 7 16 8 14 8 13 10 16 16 13 19 7 14 8 22 7 29v2h33l10 2v15l-3 66-5 76-4 58-3 57-3 64-8 115-5 75-3 55-8 136-7 126-8 129-2 35-2 47-1 15 32 2 5 1h26l84 2 55 1 141 1-5-67-3-37-4-71-3-60-6-80-3-58-1-11-2-49-5-71-3-36-2-30-3-59-5-86-6-84-5-86v-15l-23-4-25-6-33-11-18-8-19-10-9-6v-2l-4-2-10-9-14-14-14-20-6-11-4-11-2-7-4-10-2-11v-5h-2l-3-16-2-17v-31l4-18 5-16 7-17 11-20 8-12 11-14 9-10 7-8 15-12 19-12 21-11 18-7 18-4z" fill="#7F8180"/>
<path transform="translate(1450,346)" d="m0 0 5 1v13l-5 79-3 57-1 21h31l58 1-1 17-6 74-6 89-3 56-7 101-5 69-4 64-7 120-5 71-5 85-6 90-6 104-5 77-3 57v22h32l37 1 1 5-2 109v50l-2 2-7 1h-71l-20 3-44 1h-218l-70-1-44 1h-86l-31 1h-120l-171-2h-130l-187-2h-172l-72-1 1-11 1-1 1-18 1-138 1-3 68 1-2-28-4-59-4-58-5-86-3-56-3-49-8-106-2-30-5-84-5-65-5-83-4-81-7-91-5-78-3-60-1-24v-31l26-9 5-4 8-13 9-16 12-16 14-14 18-13 25-13 22-8h12l11 5 9 2v4l-8 6-11 5-25 11-11 7-11 8-11 9-15 15-7 10-4 10-1 9 129 4v1l-28 1v2l4 1v2h8l5 3 10 1 2 4-8-1v2h-2v2h-7l-8 2-6-1-1 2-1 3h-10l-1 36 1 47 5 118 3 87h7v2h27l19 2-2 1v5l-3 5-7 3-2 2-10 3h-10l-25 3-35 1h-54l-15-1 2 55 3 49 4 66 4 75 7 97 4 39 2 13h187v1l-69 2-14 1v2l8 1 7 2v3l-1 3-5 4-2-1-2 4h-4l-3 4-1 2-5 3-1 29v39l2 46 3 96v43l1 40 1 22h23l23 1-2 6-10 1v2l9 1v2l3-1 3 2-10 1-14 1-3 1-6-1-12 2h-9l-7 3h-7v-2h-4v2l-5 1-10-1h-9l-5 2-7-1-6-1h-10l-4 3-13 2h-25l-33-1v112l84 2h168l65-1 75-1 76-2 108-1 230 1 169-1 125 1 51 1 45 2 66 2h72l24-1 17-2 1-111h-14l-2-1-58-3-34-2-14-1-5-1-5 1-14-1-7-2v2l-4-1-2-1h-7l-4-1-10-1v-5l1-4-10-2h-5l-3-1-10-1-53-2-64-3-4-3-2-12-7-91-5-72-10-174-7-113-8-115-8-142-6-88-3-37v-7l2-1 43 5 13 1h21l27-4 33-7 33-9 27-8 32-9v-3l-4-2-6-1 2-4 1-4h-6l1-5-2-4 7-3-17 4-58 17-24 6-20 4-22 3-18-1-38-7-25-7-3-3-4-31-5-61-4-58v-19l2-1 103-1 39-2 54-1h100l-46-1-21-6 1-3-5-2-2-4 4-6h-2v-2l-11-1-33-1v-1l124-1 2-63 3-53 3-55z" fill="#AE701D"/>
<path transform="translate(1048,342)" d="m0 0h45l28 5 16 4 20 8 21 11 17 12 10 9 8 7 8 10 11 17 13 23 10 23 6 20 5 17 5 9 16 2 33 1 12 1-1 3h2l-2 5-1 2 4 4 2 1v2l20 6 51 1v1l-5 1h-100l-54 1-39 2-105 1 4 61 4 53 4 42 2 15 16 4 21 5 28 5 18 1 28-4 34-8 38-11 35-10 9-2h5l-4 2-10 3 2 5-1 2 5 2-1 5-2 3h8l3 3v2l3 1-43 12-38 11-23 6-36 7-16 2h-21l-30-3-27-3 1 17 6 84 5 85 5 88 9 130 7 115 10 173 9 123 3 31 1 5 3 2 85 4 32 1 12 1 2 1 10 1 4 2 1 4h-2v2l2 1h-2v2h13l1 1h10v2l3 1v-2h6l1 1 15 1 6-1 10 2h11l30 2 58 3v1h-124l-83 2h-20l-65 1h-18l-67 1-350-2-69-1-2-1-1-5h2v-2l6 2 2-3 2 2 2-3v-6l-2-1v-2h2v-2l13-2 2-2h3v2l10-1h5l-5-2h-62l-2-1-1 2-7-1-5-1h-22l-5 1h-3l-1-1v1l-26 1-6-2h-5l-1-3-2-1 3-2-1-2 3-1-2-2 2-7-2-1v-3l-3-2v-11h2l-3-6-3-1-2-3-5 2v-5l2-2-3-3-2-19v-18l3-120 1-60 1-25v-15l4-1 5 2 6-1 9-3 4-1 2 1v-2l8-3 10-1 5 2v1l-7 2-1 2-7 3-7 2-1 9-4 213v77l8 1h61v-29l4-131 6-118v-22l-21-3 3-1-1-4 4-4 14-2 6 2 5-2 1 4 3-2 1-2 5-2v-6l-1 1-1 2-4-2-4-3-7-2-2-2h-18l1-4-3-1h-17l-37-1v-1l8-2-27-1v-1l30-1 86-1 76-2 1-19 1-13 1-1 2-34 2-24 2-61 4-58 1-23 1-19 4-65 2-31 1-9v-27h-23l-56-2-14-1v-2l-5-2 2-5 3-1-6-3-7-2-1-4-4-2v-2h-3v-2h-11l-1 1h-5l-6-3h-8l-9 1h-24l-6-2-7-1v-5h1l2-254-1 82v44h-1l-1 80-1 26-2-2-1-8v-11l-4-15v-12l-1-7-1-13-3-17-1-5-1-12h-2l-1-10-2-3-3-6-2-11v-5l1-1v-7l-1-3v-24h-3v-88l3-9v-2h3l-3-1 2-9-10-3v-1l43-1-27-1 1-2 59-1h92l38-1-5-11-7-20-8-17-9-13-7-9-7-7-17-12-18-10-21-7-13-3-8-1h-16l-17 3-16 5-12 5-16 7-5 2h-7l-8-4v-2l-4-1-10-9-3-1-14-16-5-3-4-4-14-11-16-10-19-9-18-5-6-1h-16l-20 6-18 8-19 10-19 13-11 9-20 18-9 9-9 11-13 14-10 6-3 1h-9l-9-6-5-8v-5l8-7 4-5 9-7 8-8 10-8 11-11 8-7 14-12 18-13 20-12 18-10 21-9 13-4 7-1h15l21 3 24 7 20 8 23 12 10 7 13 10 13 13 7 11 13-6 22-8 21-5 5-1h25l18 2 22 6 19 7 16 8 14 8 13 10 16 16 13 19 7 14 8 22 7 29v2h33l10 2v15l-3 66-5 76-4 58-3 57-3 64-8 115-5 75-3 55-8 136-7 126-8 129-2 35-2 47-1 15 32 2 5 1h26l84 2 55 1 141 1-5-67-3-37-4-71-3-60-6-80-3-58-1-11-2-49-5-71-3-36-2-30-3-59-5-86-6-84-5-86v-15l-23-4-25-6-33-11-18-8-19-10-9-6v-2l-4-2-10-9-14-14-14-20-6-11-4-11-2-7-4-10-2-11v-5h-2l-3-16-2-17v-31l4-18 5-16 7-17 11-20 8-12 11-14 9-10 7-8 15-12 19-12 21-11 18-7 18-4z" fill="#F7DD84"/>
<path transform="translate(1397,718)" d="m0 0h4v18l-7 87-5 117-4 68-7 82-3 52-4 105-4 61-2 29v35l12 1h13l2-1 8-82 4-56 3-52 4-63 3-63 3-57 3-47 2-40 7-116 3-49 2-16 3-3 9 3 14 3 24 7 1 1v17l-4 73-9 128-4 73-8 111-4 73-6 122-4 79-4 69-4 71-1 29v28l-2 1-35 1h-136l-46-1-32-1-11-1-2-6-3-31-9-123-11-190-7-113-8-115-8-142-6-88-3-37v-7l2-1 43 5 13 1h21l27-4 33-7 33-9 27-8 39-11 33-8z" fill="#7E8081"/>
<path transform="translate(1362,1644)" d="m0 0h103l37 2v111l-7 2-11 1-31 1h-65l-71-2-40-2-51-1-131-1-165 1-228-1-108 1-78 2-144 2h-162l-84-2-1-1v-79l1-33h413l71 1h36l92 1h208l172 1 58-1h24l68-1 48-1z" fill="#7F8080"/>
<path transform="translate(1450,346)" d="m0 0 5 1v13l-5 79-3 57-1 21h31l58 1-1 17-6 74-6 89-3 56-7 101-5 69-4 64-7 120-5 71-5 85-6 90-6 104-5 77-3 57v22h32l37 1 1 5-2 109v50l-2 2-7 1h-19l-6-1-31-1-65-5-20-1-18-2-19-1h-7l-5-1v-2h-2l-1-2-9-2-23-2-24-1-7-1-49-2-38-1-58-1v-1h110l43 1 45 2 66 2h72l24-1 17-2 1-111h-14l-2-1-58-3-34-2-14-1-5-1-5 1-14-1-7-2v2l-4-1-2-1h-7l-4-1-10-1v-5l1-4-10-2h-5l-3-1-10-1-53-2-64-3-1-2h13l28 1 46 1h136l37-1-1-3v-25l2-45 3-55 5-86 8-160 3-59 3-52 7-97 5-87 6-85 4-62 2-40v-17l-24-7-21-5-3-1-2 10-2 23-9 150-4 74-2 35-4 75-2 39-3 47-4 65-4 53-7 72-3 2h-13l-12-2-1-2v-33l5-72 3-66 3-78 4-56 5-57 4-68 5-117 7-87 1-18-45 11h-6l-3-4-8-1 2-4 1-4h-6l1-5-2-4 7-3-17 4-58 17-24 6-20 4-22 3-18-1-38-7-25-7-3-3-4-31-5-61-4-58v-19l2-1 103-1 39-2 54-1h100l-46-1-21-6 1-3-5-2-2-4 4-6h-2v-2l-11-1-33-1v-1l124-1 2-63 3-53 3-55z" fill="#AE701E"/>
<path transform="translate(1048,342)" d="m0 0h45l28 5 16 4 20 8 21 11 17 12 10 9 8 7 8 10 11 17 13 23 10 23 6 20 5 17 5 9 16 2 33 1 12 1-1 3h2l-2 5-1 2 4 4 2 1v2l20 6 51 1v1l-5 1h-100l-54 1-39 2-105 1 4 61 4 53 4 42 2 15 16 4 21 5 28 5 18 1 28-4 34-8 38-11 35-10 9-2h5l-4 2-10 3 2 5-1 2 5 2-1 5-2 3h8l3 3v2l3 1-43 12-38 11-23 6-36 7-16 2h-21l-30-3-27-3 1 17 6 84 5 85 5 88 9 130 7 115 10 173 9 123 3 31 1 5 3 2 85 4 32 1 12 1 2 1 10 1 4 2 1 4h-2v2l2 1h-2v2h13l1 1h10v2l3 1v-2h6l1 1 15 1 6-1 10 2h11l30 2 58 3v1h-124l-83 2h-20l-65 1h-18l-67 1-163-1-3-2h37l-2-5-6-2 4-3h-3l-2 1-1 3-6-3-10-2-3-2-2 2-2-4 5-3 6 1 3-2 3 2 5-1 3 1v-2l4 1 7-2 9-1 5-1 3-1 14-1v4l5-3 3 2 6-5h8l4-2-10-1-27-1v-1h136l-5-67-3-37-4-71-3-60-6-80-3-58-1-11-2-49-5-71-3-36-2-30-3-59-5-86-6-84-5-86v-15l-23-4-25-6-33-11-18-8-19-10-9-6v-2l-4-2-10-9-14-14-14-20-6-11-4-11-2-7-4-10-2-11v-5h-2l-3-16-2-17v-31l4-18 5-16 7-17 11-20 8-12 11-14 9-10 7-8 15-12 19-12 21-11 18-7 18-4z" fill="#DEBA66"/>
<path transform="translate(505,1273)" d="m0 0h80l27 1 12 1v1l-15 1 42 1h7l4 2-2 1v3l6-1h13l2 2 3 1 8 3 1 3 2 1 1-4 2 1v6l-6 3v2h-3l-1 2-2-4-5 2v-2l-4 1-2-1-13 2-3 3 1 2-1 2 9 2 9 1 1 1v22l-4 81-2 37-5 160-19 1h-42l-8-1-1-1v-79l3-164 1-51 2-6 9-3 5-1 1-3 3-2-5-1-8 2-6 1v2l-6 1-6 2-9 2-6-2h-3l1 16-1 36-3 133-1 48 1 18 2 7 2 2-2 2 1 3 4-1 3 1 4 8v2h-2l1 11 3 3 1 8-1 2 2 2-3 2 1 2-2 2 1 2 10 1 1 1 25-1 2-1v2l6-2h3 26l7 2 5-1h63l2 1v2l-10 1h-5v-2l-6 3-5 1h-7v2h-2v2l3 1v6l-4 4-1-2-3 3-5-3-1 7 73 1 157 1v1h-180l-97-1h-46l-62-1h-349l3-2 10-1 4-3h12l9 1 3 1 4-2h9l13 1h2l-1-3 5 1v2l7-1 9-3h10l11-2 6 1 1-1 15-1 5-1h-2v-2l-9-1v-2l8-2 2 1 1-4 1-2h-23l-23-1-1-2-1-20-1-43v-40l-3-96-2-46v-39l1-29 3-3 3-2 1-2h2l1-3h4l2-4h3l4-4 1-3-7-2-8-2v-2h-5v-1l49-2 39-1h78z" fill="#DEBB67"/>
<path transform="translate(571,537)" d="m0 0h21v1l30 1-4 2-41 1 8 3v6l-2 3 4 1-1 2-3-2v2l2 1h-2l-1 9-1 3v52l-1 32h3l1 17v7l1 3v7l-1 1 1 9 2 9 3 6h1v11h2l1 2 1 13 3 12 2 20 1 7v13l4 15v14l1 2 1-30 1-66v-21h1v-35l1-88 2-4-1 158-1 114-2 3h9l4 2h29l4-1h8l6 3h5l2-1 10 1v2h3v2l6 2-1 3 11 4 3 2-1 2-3-1-1 5 5 2v1l35 2 57 2v1h-33l-190-2-48-1-101-1h-273l-4-2h67l37-1 23-3h10l7-2 12-6 3-6-2-1h2v-2l-17-2-27-1v-2h-7l-1-2-4-108-4-95-1-53 2-30 9-1 2-3 3-1 10-1 6-1 3 1v-2h2v-2h7l-1-3-3 1-7-1-5-3-8-1-1-2-3-1v-2l3-1 25-1 174-2 63-2z" fill="#DEBA66"/>
<path transform="translate(1064,374)" d="m0 0h42l15 4 18 7 19 9 16 10 10 9 8 8 10 14 8 13 8 16 7 18 8 25 2 9-9 3h-84l-31-1h-32l-7 1v33l3 40 4 72v21l-40-10-18-6-23-10-10-6-13-10-17-17-11-16-12-23-6-15-4-16-2-16v-23l4-24 6-18 9-20 11-18 9-11 11-12 14-11 13-8 15-8 19-7 21-5z" fill="#7F8180"/>
<path transform="translate(1302,546)" d="m0 0h106l1 2-1 52-5 87-2 6-39 6-37 9-58 17-24 6-20 4-22 3-18-1-38-7-25-7-3-3-4-31-5-61-4-58v-19l2-1 103-1 39-2z" fill="#7F8181"/>
<path transform="translate(472,920)" d="m0 0 9 2 6 4 6 7 13 25 11 27 8 22 2 6 14 5 24 6 21 3 35 4 12 2 2 1-1 10-5 12-15 15-14 10-13 10-12 11-7 11-3 10v17l3 61 2 13v11l-1 2-10-1-16-4-20-7v-2l-9-3-17-9-7-3-14-7h-8l-16 8-18 10-25 12-13 6-17 4h-5l-2-4 3-37 3-44 1-34-10-8-12-9-21-18-7-8-13-14-6-10-1-6 2-3 17-3 38-4 34-6 11-3 8-10 13-31 11-23 10-16 8-12 9-7z" fill="#DBA845"/>
<path transform="translate(684,1754)" d="m0 0h46l202 1 169-1 23 1 58 1 43 1 44 2 7 1 24 1 23 2 9 2 1 3 7 2h11l28 2 9 1 42 3 39 3 31 1v1l-46 1-20 3-44 1h-218l-70-1-44 1h-86l-31 1h-120l-171-2h-130l-187-2h-172l-72-1 1-5 5 1h64l66-3h11l24-2 43-1h10l11-1 5-3 4-2 1-2 18-2 71-2 25-2 70-1 76-2z" fill="#DDB965"/>
<path transform="translate(252,567)" d="m0 0h51l25 1 12 1 2 1 1 65 1 178 1 42-1 1h-43l-36-1-7-1-1-2-4-108-4-95-1-53 1-20 1-8z" fill="#7F8181"/>
<path transform="translate(385,568)" d="m0 0h41l36 4 1 1-1 129-1 88v65l-11 1h-68l-7-2-1-3-2-46-2-121v-100l1-10 2-3z" fill="#7F8181"/>
<path transform="translate(279,1303)" d="m0 0h67l6 2 1 4v35l1 76v157l1 41-2 1h-76l-1-2-2-60-3-106-2-56-1-22v-39l1-22 2-7 1-1z" fill="#7F8181"/>
<path transform="translate(392,1304)" d="m0 0h37l30 1 3 1v151l-1 91v68l-12 1h-64l-1-1-2-29-1-54v-217l3-7 4-4z" fill="#7F8181"/>
<path transform="translate(143,568)" d="m0 0h70l3 2 6 175 4 79 1 14v16h-80l-2-12-3-29-3-44-3-41-4-61-4-67v-30l1-1z" fill="#7E8081"/>
<path transform="translate(500,572)" d="m0 0h71l8 1v17l-1 43-4 220h-65l-19-1-1-57v-42l1-133 1-47z" fill="#7E8081"/>
<path transform="translate(500,1307)" d="m0 0h46l23 2 1 1v63l-2 66-3 112-1 64-31 1h-33l-9-1-1-1v-229l1-71 5-5z" fill="#7E8081"/>
<path transform="translate(647,572)" d="m0 0 49 2 2 1v22l-4 113-4 104-2 36-1 1h-47l-30-1v-114l1-153 2-7 7-2z" fill="#7F8181"/>
<path transform="translate(784,572)" d="m0 0h35v29l-4 76-4 54-3 55-5 63-3 1h-75v-35l5-147 2-47 1-30 1-14 4-2z" fill="#7F8181"/>
<path transform="translate(630,1308)" d="m0 0 23 1 19 1 6 2v22l-4 81-2 37-5 160-19 1h-42l-8-1-1-1v-79l3-164 1-51 2-6 7-2z" fill="#7E8081"/>
<path transform="translate(471,981)" d="m0 0 4 2 7 10 8 15 6 13 7 13 7 6 5 2 15 2 26 1 12 2 10 4 1 1-1 7-10 16-10 9-9 7-10 9-6 10-1 2v10l3 21 2 10 1 11v22h-2l-1 4-5-1-10-7-13-10-14-10-9-6-7-3h-9l-11 6-38 28-9 7-2-1 2-53v-36l-5-10-6-5-12-5-8-7-6-8-3-10 1-2 18-5 26-6 21-5 5-3 12-23 14-28z" fill="#7E8081"/>
<path transform="translate(183,1303)" d="m0 0h45l8 1 2 2 3 131 3 81 2 58v40h-53l-1-1-4-61-5-78-5-76-3-47-1-27v-22z" fill="#7F8181"/>
<path transform="translate(361,1274)" d="m0 0h18l41 1 7 2 9 1 2 1 15 2v2l3 1-4 2h-4l1 7 7 3h2v2l2 1-1 3-30 1-1 2h-36l-5 2-3 3-2 6v217l1 54 2 29 56 1v1h-57v3h8l6-1h44l6 2v2l5-2h4v2h3v2l4 1 1 2 9 2v3l-9 3-6 1-6 2v-3l-1 2-3 1h-11l-11 1h-18l-4 2h28l59 1v1l-170 1h-138l3-2 10-1 4-3h12l9 1 3 1 4-2h9l13 1h2l-1-3 5 1v2l7-1 9-3h10l11-2 6 1 1-1 15-1 5-1h-2v-2l-9-1v-2l8-2 2 1 1-4 1-2h-23l-23-1-1-2-1-20-1-43 2 2 2 62 7-1h69l1-1-1-40v-157l-1-76v-38l-6-2h-67l-7 1-2 5h-1v-5l3-3 3-2 1-2h2l1-3h4l2-4h3l4-4 1-3-7-2-8-2v-2h-5v-1l49-2z" fill="#CB9637"/>
<path transform="translate(757,1309)" d="m0 0h19l-1 18-4 59-2 27-4 50-6 105-2 25v15l-1 1-13 1h-39l-1-1v-47l3-114 4-97v-23l1-2v-12l2-3z" fill="#7F8080"/>
<path transform="translate(389,541)" d="m0 0h26v1l-5 1-25 1 3 2 9 3 6 4 1 4-8 3-13 1-2 5-8 1-2 4 1 3-1 10v100l2 121 2 46 1 3 6 1h79l-1-72 1-81 1-113 1-16h1l1 62 1 8 1 1 2 37v22l1 5v43l-1 7 2 11h-2v18l-1 10 1 3-1 6-3 1-1-1-1 49-4 2-35 1 5 2 12 2 5 1 10 3v2h3v5l-4 2-6 2-4 2 17 1 53 1v1h-361l-4-2h67l37-1 23-3h10l7-2 12-6 3-6-2-1h2v-2l-17-2-27-1v-1h79l-1-42-1-178v-65l-39-2h-53v-2l9-1 2-3 3-1 10-1 6-1 3 1v-2h2v-2h7l-1-3-3 1-7-1-5-3-8-1-1-2-3-1v-2l3-1 25-1z" fill="#CB9537"/>
<path transform="translate(1048,342)" d="m0 0h45l28 5 16 4 20 8 21 11 8 6-1 2-10-6-19-10-16-6-17-2-8-2-12-2-17-3h-28l-6 1v2h-2l-1 5 2 2-4 2h-2l2 3 5-1-1 4h-3l1 5 11 3v1h-5v2l-21 5-21 8-20 11-11 8-11 9-11 12-11 16-8 14-10 24-4 14-3 20v23l3 20 4 15 9 20 11 20 10 13 16 16 17 12 17 8 18 7 17 5 32 8v2l2 1-12-1-7 1-2-1 1-2-3 1-6-3-7 1-6 4h-5v2h-2l-1 6-4-1-4 2-7 1-6-3-7-2-2-2-7-2-2-2-8-2-11-4-16-10v-2l-4-2-10-9-14-14-14-20-6-11-4-11-2-7-4-10-2-11v-5h-2l-3-16-2-17v-31l4-18 5-16 7-17 11-20 8-12 11-14 9-10 7-8 15-12 19-12 21-11 18-7 18-4z" fill="#F7DC83"/>
<path transform="translate(1058,346)" d="m0 0h28l17 3 20 4 17 2 16 6 25 13 4 3h3l13 10 14 13 10 14 11 18 10 18 9 21 6 20 5 17 5 9 16 2 33 1 12 1-1 3h2l-2 5-1 2 4 4 2 1v2l20 6 51 1v1l-5 1h-100l-54 1-39 2h-101v-1l11-1h83l22-1-9-1-28-1-12-3h-5l-1-3h-4v-2h-4l-1-7-13-2-3-3 2-3 4-1h-22l-20-2-29-1v-1h32l31 1h84l8-2-4-16-8-24-7-17-10-18-11-16-11-12-9-8-13-8-15-8-19-8-16-5-5-1h-51l1-2-7-3v-2l-2-1 1-2 3-1v-2l-4 1-3-5 5-1-1-4 2-3h2v-2z" fill="#DBA846"/>
<path transform="translate(1095,1754)" d="m0 0 29 1 58 1 43 1 44 2 7 1 24 1 23 2 9 2 1 3 7 2h11l28 2 9 1 42 3 39 3 31 1v1l-46 1-20 3-44 1h-218l-70-1-44 1h-81l-6-1v-1l5-1-1-2-10-2h-8l-4-2-10-1-13-2h-5v-2h-2l-1-5-2-1v-2h2v-2l-11-2-3-1-8-1h-37l-55-1v-1l124-1z" fill="#DEBB67"/>
<path transform="translate(430,343)" d="m0 0h15l21 3 24 7 20 8 1 3 9 5 9 6 7 4v2h2l1 4h2l3 5 7 8v2l4 2v2l4 2 4 6 2 1 1 5 5 2 2 1 2-2h2l2 3 4-1 11-4 7-1 7-3 15-3 4 1-2 4-9 5-10 4-9 4-8 5-4 2h-10l-15-6v-2h-3v-2h-2v-2h-2v-2l-4-2-1-1-1 8 2 4h-2l-14-16-5-3-4-4-14-11-16-10-19-9-18-5-6-1h-16l-20 6-18 8-19 10-19 13-11 9-20 18-9 9-9 11-13 14-10 6-3 1h-9l-9-6-5-8v-5l8-7 4-5 9-7 8-8 10-8 11-11 8-7 14-12 18-13 20-12 18-10 21-9 13-4z" fill="#E5BA56"/>
<path transform="translate(489,1410)" d="m0 0h1l1 204 13 1h61v-55l1-13h2l2 19 3 3-2 2 1 3 4-1 3 1 4 8v2h-2l1 11 3 3 1 8-1 2 2 2-3 2 1 2-2 2 1 2 10 1 1 1 25-1 2-1v2l6-2h3 26l7 2 5-1h63l2 1v2l-10 1h-5v-2l-6 3-5 1h-7v2h-2v2l3 1v6l-4 4-1-2-3 3-5-3-1 7 73 1 157 1v1h-180l-97-1h-46l-62-1h-19l-22-1-76-1h-15l2-3 13-1h15l9-1h9l4-2 1 2 9-3 7-1 4-1-3-3-7-2-1-2-3-1v-2l-8-1-4 1v-2l-6-1h-44l-8 1-6-1-1-4h79v-126l2-55 2-1 2 12-1 9h-2v33l-1 27v28h3l2 7-1 6 5 2 2 1-2 6 3 1v9l2 9 4 14 5 2 1-183z" fill="#DEBB67"/>
<path transform="translate(1469,547)" d="m0 0h16l13 1v15l-7 102-2 38-1 7-9-1-44-11-1-1v-26l7-82 3-31 2-9 1-1z" fill="#7E8081"/>
<path transform="translate(415,541)" d="m0 0h12l15 1h61l2 2-13 3-2 6 2 5 3 5h10l1 1h5l2 5-14 1h-7l-1 1v49l-1 150v28l-2 14-1 15-2 2-3-1-1-6-3-1-1-9h-2l-5-6-2-3v-5l-1-5 1-13 1-11v-3l-1-13 1-2v-43l-1-5v-23l-2-36-1-5-1-9v-57l-40-4h-39l-12 3-3-1 3-4 7-2 2-1 1-4 13-1 5-2h3l-3-5-5-3-11-3-2-2 2-1 25-1z" fill="#E6BA56"/>
<path transform="translate(472,920)" d="m0 0 9 2 6 4 6 7 13 25 11 27 8 22 2 6 10 4v2l10 2 13 3-1 5-14 1-1 8 1 5-1 1h-23l-8-2-5-3-6-5-8-14-7-16-8-14-6-8h-2l-14 27-13 26-5 6-7 2-8 1-13 2 2-6 3-5-1-6-5-2 1-5h2l2-4 4-6 6-17 13-29 7-13 13-21 6-7z" fill="#F7DD84"/>
<path transform="translate(537,1018)" d="m0 0 8 1 25 6 51 6 12 2 2 1-1 10-5 12-15 15-14 10-13 10-12 11-7 11-3 10v17l3 61 2 13v11l-1 2-10-1-16-4-20-7 4-1h4l7-12 1-5h-2v-2l-3-1v-3h3l1-6-2-32-4-21-1-10v-10l5-9 9-10 15-12 8-7 10-17v-5l-13-5-9-1-26-1-1-2h15l-1-9 2-5 14-1 1-4-9-1-14-4z" fill="#DDBA66"/>
<path transform="translate(1064,374)" d="m0 0h42l15 4 18 7 19 9 16 10 10 9 8 8 10 14 8 13 8 16 7 18 1 10-2-1-5-9-2-7-5-5-8-10-5-4h-7l-7-2-10-5-6-7-2-5h-2l-4-5-5-3-3-3-7-5-3-3-17-9-8-5-4-2-12-1-5-2-6-1h-16l-7 3h-17l-18 3-9 6-5 2-6 8h2v4l-8 4v1h-5l-7-5-11-2-5 1-5 2-5 5-3 1v2h-2l-2 5h-2l-2 4-4 6h-2v2h-2l-2 4-4 2 1-6 9-14 8-10 11-12 14-11 13-8 15-8 19-7 21-5z" fill="#66778C"/>
<path transform="translate(1236,449)" d="m0 0 1 4 1 5h4l2 4 4 2 4 5 4 10 5 17v3h2l5 13 3 5 16 2 33 1 12 1-1 3h2l-2 5-1 2 4 4 2 1v2l20 6 51 1v1l-5 1h-100l-54 1-39 2h-101v-1l11-1h83l22-1-9-1-28-1-12-3h-5l-1-3h-4v-2h-4l-1-7-13-2-3-3 2-3 4-1h-22l-20-2-29-1v-1h32l31 1h84l8-2 2-6 2-1 2-5-1-5-4-15-1-2-1-10h-2l1-2 3 1 1-7-2-8v-3z" fill="#CBA34E"/>
<path transform="translate(1072,518)" d="m0 0h36l24 2h23v1l-9 1-1 4 15 4 1 7h4v2h4l2 2 6 1 13 2 25 1 9 1 5 1v1l-27 1h-83l-11 1-4 1 4 61 1 16v11h-2l1 4v22l-1 2-4-2-4-3-3-8-2-4-1-4h-2v11h-3v6l-2 5-2-3-3-5-1-8-1 12h-1l-5-89-2-23v-33z" fill="#DEBB67"/>
<path transform="translate(462,1306)" d="m0 0 2 2v45l1 9 3-8 5-2 1-4h3v-2l4-4 1-4 6-2 1 1v81l-1 184-7-3-5-16-1-13v-3l-2-1 1-4 1-2-5-2-2 2-1-7 1-4-1-5h-3l-1-8v-27l1-20v-25l1-8h2v-10l-2-10-2 55-1 126h-13v-1h12l-1-21v-59l1-79z" fill="#E6BB56"/>
<path transform="translate(697,1756)" d="m0 0h111l70 1h22l10 1 7 2 5 2v2h-2v2l3 1v5h2v2l8-1 16 3 6 1 3 1h7l10 2 1 3 3 1-11 1h-199l-44-1-4-2 1-3 3-2 15-3 9-4-11-1-3-3-10-1-10-3-12-1v-2h-5z" fill="#F8DE85"/>
<path transform="translate(1095,1754)" d="m0 0 29 1 58 1 43 1 44 2 7 1 24 1 23 2 9 2 1 3 7 2h11l28 2 9 1 42 3 39 3 31 1v1l-46 1-20 3-44 1h-193l-23-1v-1l9-1 1-2-2-1-2-4 4-1v-3l6 1v-2l10-1 1 1 1-5 2-2-4-2-6-1h-9l-1-1h-34v-2l-118-1h-98l-2-2z" fill="#BA9149"/>
<path transform="translate(392,359)" d="m0 0h2v2h2l1-2v2l5-2 4 3h6l-6 9-8 4-5 5h-2v2l-13 9-4 4-26 20-10 9-11 12-8 8-9 11-13 14-10 6-3 1h-9l-9-6-5-8v-5l8-7 4-5 9-7 8-8 10-8 11-11 8-7 14-12 18-13 20-12 9-3 8-1z" fill="#CB9637"/>
<path transform="translate(468,1152)" d="m0 0h9l10 5 16 11 14 11 13 9 5 1 1-3 3-1-1 4-1 2h-3l1 3 2 1v2h2l-1 7-5 8-2 4-4-1-13-5-17-9-7-3-14-7h-8l-16 8-18 10-25 12h-5l3-7 2-10v-7l8-10 14-10 19-14 14-9z" fill="#F7DD84"/>
<path transform="translate(1175,1614)" d="m0 0 3 1 85 4 32 1 12 1 2 1 10 1 4 2 1 4h-2v2l2 1h-2v2h13l1 1h10v2l3 1v-2h6l1 1 15 1 6-1 10 2h11l30 2 58 3v1h-124l-83 2h-76l4-2h7v-2h6l6 1h9l7-1 5 1h18l-9-1h-9l-2-3-2 1-2-1-1 2-5-2-2 1-9-2-2 1v-2l-3 1-10-1v-2h-3l-1 3-3-3-9-2-13-3-7-3v-5l5-1z" fill="#CCA44F"/>
<path transform="translate(516,1757)" d="m0 0h44v1l-89 3-4 1-26 1-6 1 2 1v2l6-1 13 2h5 3l7 1h4l8 1h8l-1 2-27 1-18 1-6-1-4 1h-6l-3 1-1-1-6 2-3 2-10 1-3 2h-14l130 2v1h-96l-90-1h-172l-72-1 1-5 5 1h64l66-3h11l24-2 43-1h10l11-1 5-3 4-2 1-2 18-2 71-2 25-2z" fill="#CBA34E"/>
<path transform="translate(1345,702)" d="m0 0h5l-4 2-10 3 2 5-1 2 5 2-1 5-2 3h8l3 3v2l3 1-43 12-38 11-23 6-25 5-8-1-5-2-7-2v-2l-4-1v-2l-3-1 1-4 2-4 13-6 1-2h-5v-1l20-3 34-8 38-11 35-10z" fill="#CA9538"/>
<path transform="translate(537,1018)" d="m0 0 8 1 25 6 51 6 12 2 2 1-1 10-5 12-15 15-14 10-13 10-12 11-7 11-1-3 8-11v-4l-3-6 3-11v-10l1-4v-3l2-4v-5l-13-5-9-1-26-1-1-2h15l-1-9 2-5 14-1 1-4-9-1-14-4z" fill="#CB9537"/>
<path transform="translate(358,1030)" d="m0 0 3 1-2 2 7 3h5l3-3 1 3-4 7v6l-1 1-1 10 5 12 6 9 4 4 2 8 3 7-3 5 1 7-3 11-2 3-5 69-1 10h-1v-15l3-44 1-34-10-8-12-9-21-18-7-8-13-14-6-10-1-6 2-3 17-3z" fill="#CB9537"/>
<path transform="translate(463,573)" d="m0 0h1l1 62 1 8 1 1 2 37v22l1 5v43l-1 7 2 11h-2v18l-1 10 1 3-1 6-3 1-1-1-1 49-4 2-35 1 5 2 12 2 5 1 10 3v2h3v5l-4 2-6 2-4 2 17 1 53 1v1h-88l-127-1v-1l65-2 13-3 5-1 6-3h2l-3-5-5-4-3-1-1-2-3-1-1-4 7 1h79l-1-72 1-81 1-113z" fill="#CCA44F"/>
<path transform="translate(1058,346)" d="m0 0h28l17 3 20 4 17 2 16 6 25 13 4 3h3l13 10 14 13 1 4-6-5v-2h-2v-2l-4-2-3-2v-2l-4 1-4-3v-2l-4-1-1-3-5-1-4-3-9-3-7-2h-6v2h-2v2l-11 3v7l5 2 7 4-2 1-22-10-21-7-5-1h-51l1-2-7-3v-2l-2-1 1-2 3-1v-2l-4 1-3-5 5-1-1-4 2-3h2v-2z" fill="#E6BA56"/>
<path transform="translate(1139,1757)" d="m0 0h33l29 1 23 1 14 1 9 2h13l3 3v-2l6 2v7l5-1 9 1 1 4 3-3 4 1 2-1 2 2 8 2-3 1v3l18-1 1 1h7l1 1 10-1 10 2v2l-8 1h-142l-23-1v-1l9-1 1-2-2-1-2-4 4-1v-3l6 1v-2l10-1 1 1 1-5 2-2-4-2-6-1h-9l-1-1h-34v-2h-11z" fill="#CCA44F"/>
<path transform="translate(430,343)" d="m0 0h15l9 1v1l-9 1 17 4 9 4 7 3 4 3 2 5 5 6-1 2-9 2h-3l-15-2-10-2h-16l-20 6-18 8-19 10-19 13-11 9-10 9h-3l10-10 30-23h2l2-4 10-7h2v-2l4-3h2l1-3 8-4 3-5 2-2h-5l-4-3-8 1v-2l-6 5-11 1 4-4 26-12 16-5z" fill="#DAA746"/>
<path transform="translate(398,1090)" d="m0 0 6 2 6 9 1 3v36l-2 53 4-3 2 1-5 6v9l-2 8-3 6v3l-9 4-17 4h-5l1-18 3-4 4 2 2-6 5-12v-7h2l2-5 2-3v-13l-2-1v-10l5-6v-7l1-10v-11l1-5v-22z" fill="#DEBB67"/>
<path transform="translate(401,1275)" d="m0 0h19l7 2 9 1 2 1 15 2v2l3 1-4 2h-4l1 7 7 3h2v2l2 1-1 3-30 1-1 2h-36l-5 2-3 3-2 6v236l-2-3-2-89 1-61v-80l1-8 5-8-2-1 4-4 1-5-1-7 1-4-5-2-3-4z" fill="#CCA44E"/>
<path transform="translate(1269,517)" d="m0 0 18 2 33 1 12 1-1 3h2l-2 5-1 2 4 4 2 1v2l20 6 51 1v1l-5 1h-116l-15-1-5-5v-2l-3-1v-9l4-4 2-4z" fill="#B99048"/>
<path transform="translate(576,1063)" d="m0 0 1 3-1 2v12l-3 10 4 6-2 4-7 10-3 13v17l3 61 1 12-2 2-3-2-2-13-5-12-4-5-4-8-2-8-1-3h2v-23l2-9h3l2 1 1-3-1-3 2-3h2v-7l-3-1-2 5 1 2-1 4h-2v-2l-3-1 1-7 1-11 4-9 1-4h2l1-7v-1l-5 2 5-5 9-8 6-10z" fill="#DAA746"/>
<path transform="translate(1178,1616)" d="m0 0h22l63 3 32 1 12 1 2 1 10 1 4 2 1 4h-2v2l2 1h-2v2h13l1 1h10v2l3 1v-2h6l1 1 15 1 6-1 10 2h11l30 2 58 3v1h-21l-62-1-16-1-10-1h-19l-6-1h-14l-5-1-28-1-7-2-1-1-7 1h-3l-3-3-7 1-8-1-2-1-11-1-5-3-6 1-7-1v-4h-5l-4-2-5 1-1-2h-9-3-4-3l-7-1-9-3h-7z" fill="#BA9148"/>
<path transform="translate(1075,397)" d="m0 0h16l8 2v26l-1 30-2 23-4 4-2 1-12-1-2-2-1-48z" fill="#F6DB82"/>
<path transform="translate(415,541)" d="m0 0h12l24 2 2 1 11 1 10 5v8h-2l-1 3-8 1v2l-8 1-24 1-13 1-1 1-32 1-12 3-3-1 3-4 7-2 2-1 1-4 13-1 5-2h3l-3-5-5-3-11-3-2-2 2-1 25-1z" fill="#DBA845"/>
<path transform="translate(1102,571)" d="m0 0h1l1 16 2-4 3 45v11h-2l1 4v22l-1 2-4-2-4-3-3-8-2-4-1-4h-2v11h-3v6l-2 5-2-3-3-5-1-8-1 12h-1l-1-21v-50h1v5l3-1 2 5 2 8 1 6v5l2 2 1-5v-6l5-13 3-10 2-5z" fill="#E5BA56"/>
<path transform="translate(1148,425)" d="m0 0 6 2 9 6 3 4v10l-2 18-4 15-4 8-6 5h-13l-5-3-2-3v-13l7-28 7-15z" fill="#F7DD84"/>
<path transform="translate(986,504)" d="m0 0 11 1 13 3 9 5 4 5 2 5v7l-4 8-12 9-10 6h-8l-7-5-4-11-3-17v-8l6-7z" fill="#F7DD84"/>
<path transform="translate(1012,428)" d="m0 0 8 1 3 1 6 8 3 5 3 9 2 14v28l-3 4-6-2-10-5-5-5-3-8-5-29-1-10 2-6z" fill="#F8DE85"/>
<path transform="translate(1034,554)" d="m0 0 5 1 1 1v16h-2v13l-3 19-4 10-2 3h-2v2h-2v2l-10-1-7-6-2-8v-14l4-11 2-10 11-10 9-6z" fill="#F8DE85"/>
<path transform="translate(398,1620)" d="m0 0h44l6 2v2l5-2h4v2h3v2l4 1 1 2 9 2v3l-9 3-6 1-6 2v-3l-1 2-3 1h-11l-11 1h-18l-4 2h28l59 1v1h-142l-10-1v-1l30-1 7-1 3-5 2-1 2 1v2h3l1-2 10-1 2 1v-2l8-5h4v4l2-7-6-2-10 1-8-1-5-2v-1z" fill="#CBA34E"/>
<path transform="translate(1256,728)" d="m0 0 3 1-3 6-4 2-1 2h4l1 6-1 3h8v2l5 2v2l-19 5-25 5-8-1-5-2-7-2v-2l-4-1v-2l-3-1 1-4 2-4 13-6 1-2h-5v-1l20-3 18-4z" fill="#CBA34E"/>
<path transform="translate(384,1761)" d="m0 0h21v1l-19 1 4 4 9 1h8v3l-4 2h-22l-11 1h-11l-6 2-1-2-9 1-1 2-7 1h-90l-45 1h-40v-1l65-3h11l24-2 43-1h10l11-1 5-3 4-2 1-2 18-2z" fill="#CB9537"/>
<path transform="translate(1236,449)" d="m0 0 1 4 1 5h4l2 4 4 2 4 5 4 10 5 17v3h2l5 13 2 5-3 6-7-1-5-3-1-2-6 1-9-1-3-3 1-4 2-4v-3l-1-9-3-10-1-2-1-10h-2l1-2 3 1 1-7-2-8v-3z" fill="#CB9637"/>
<path transform="translate(560,1083)" d="m0 0v3l-1 5-1 2h-2l-1 7-3 6-1 13-1 5 2 1v2h2l-1-6 3-5 3-1 1 5-1 4h-2l-1 4 1 3-3 3h-4l-1 7v13l-1 10h-2l3 5 2 10-5 6v5l-3 1-3-20v-12l2-3-1-7-2-9-3-5-2-6-2 3-1-10v-10l5-9 9-10 7-6 7-3z" fill="#E6BA56"/>
<path transform="translate(550,398)" d="m0 0 1 2 4 2v2l4 2 4 6 2 1 1 5 5 2 2 1 2-2h2l2 3 4-1 11-4 7-1 7-3 15-3 4 1-2 4-9 5-10 4-9 4-8 5-4 2h-10l-15-6v-2h-3v-2h-2v-2h-2v-2l-4-2-3-4-1-5h2v-7z" fill="#DFBC68"/>
<path transform="translate(358,1030)" d="m0 0 3 1-6 3-9 3-4 3h-2l-1 4-2 10-2 2v9l2 9 11 11 6 5-1 2-11-10-6-5-7-8-13-14-6-10-1-6 2-3 17-3z" fill="#AE701D"/>
<path transform="translate(283,1301)" d="m0 0h53l15 1 4 4 1 101v195l1 13 1 4-4-2-1-40v-157l-1-76v-38l-6-2h-67l-7 1-2 5h-1v-5l3-3z" fill="#BA9149"/>
<path transform="translate(592,1028)" d="m0 0 13 1 28 4 2 1-1 10-5 12-15 15-7 5-2-1 5-6 3-3-3-5-1-7-1-8-3-1-2-4 1-4h3l1-5-7-1-9-2z" fill="#AE701D"/>
<path transform="translate(419,1010)" d="m0 0 1 2-7 10-2 1v4l4 2 2 4v3h-2l-4 10 16-4 2 2-30 7-10 2h-7l3-12-1-9-1-4 1-2 25-5 5-4z" fill="#DDB966"/>
<path transform="translate(464,635)" d="m0 0 2 4 1 5 2 37v22l1 5v43l-1 7 2 11h-2v18l-1 10 1 3-1 6-3 1-2-2v-55z" fill="#DCA845"/>
<path transform="translate(1071,398)" d="m0 0h4l2 82 7 2h8l-1 2-6 2h-7l-5-2-3-7-5-60v-12l3-5z" fill="#AE711E"/>
<path transform="translate(462,1306)" d="m0 0 2 2v45l1 14 2 4-1 11 1 2v26l-1 1 1 13v6l-2 6-2 55-1 126h-13v-1h12l-1-21v-59l1-79z" fill="#C29A4B"/>
<path transform="translate(672,1308)" d="m0 0 6 2 2 3v19l-2 45-2 40-3 69-1 35-1 46-2 41-2 4v-29l4-131 6-118v-22l-6-2z" fill="#CCA554"/>
<path transform="translate(342,570)" d="m0 0 2 2 1 163 1 76 1 21v25l-1 1h-42l-12-1-27-1v-1h79l-1-42-1-178z" fill="#BA9149"/>
<path transform="translate(404,1096)" d="m0 0 4 1 3 7v36l-2 53-2 5-2 1v-21l-1-1-1-7v-62z" fill="#F4D981"/>
<path transform="translate(570,1310)" d="m0 0h1l1 51-3 133-1 48-2 18-1 55h-1v-64l4-151 1-29v-24z" fill="#D3AD59"/>
<path transform="translate(507,362)" d="m0 0 7 1 19 10 10 7 13 10 13 13 7 11 2 3-5 5-7-4v-2l-2-1 1-2-3-1-5-7-6-5-7-9-3-3v-3h-2l-1-4h-2l-1-2-6-3-10-7-12-6z" fill="#F4D980"/>
<path transform="translate(1099,400)" d="m0 0 5 1 7 3 1 5v13l-2 7-5 5-3 22-4 17-2 3 2-51z" fill="#AE701D"/>
<path transform="translate(601,1314)" d="m0 0 1 3-2 108-2 110v76l8 1v1h-11v-73l1-73 2-71 2-80z" fill="#D9B460"/>
<path transform="translate(376,1027)" d="m0 0h8l2 11-1 7-3 8 4 1-12 3h-3l1 7 5 10 8 8 6 3-3 2-6-3-7-8-6-13-1-6 1-7 1-2 1-7 3-6-3 2-9-1-4-2 1-3 12-3z" fill="#CBA34E"/>
<path transform="translate(1011,572)" d="m0 0 1 2-2 10-3 8v14l3 9 5 4 10 2-4 2h-7l-9-4-5-4-6-8-2-6v-7l6-10 8-6z" fill="#AE701D"/>
<path transform="translate(201,1640)" d="m0 0h12l9 1 3 1 4-2h9l12 1v2h66l34 1v1l-28 1h-138l3-2 10-1z" fill="#BA9048"/>
<path transform="translate(1e3 479)" d="m0 0 4 2 6 5 4 4 10 7 3 5v2l3 1v1h-18v2l-19-2v-2l-2-1 8-3 6 1-6-15z" fill="#66778C"/>
<path transform="translate(369,575)" d="m0 0 2 1v108l2 121v14h-1l-1-5-1-21-2-113v-100z" fill="#CCA44F"/>
<path transform="translate(537,1018)" d="m0 0 8 1 25 6 9 2-5 4-3 2-6-1-2-1-1 5 1 8-1 1h-32l-1-2h15l-1-9 2-5 14-1 1-4-9-1-14-4z" fill="#E2B858"/>
<path transform="translate(1328,1634)" d="m0 0h7l1 1h10v2l3 1v-2h6l1 1 15 1 6-1 10 2h11l30 2 58 3v1h-21l-62-1-16-1-10-1h-19l-6-1h-14l-9-2-4-2z" fill="#BC9146"/>
<path transform="translate(553,1196)" d="m0 0 6 5 1 6 2 2 1 4 4 1h3v11l-1 2-10-1-6-1v-2l-3-2-3-11v-5l-2-1 3-2 2-5z" fill="#E6BA56"/>
<path transform="translate(385,1118)" d="m0 0 2 4v7l1 3h-2l1 7-4 14v10l-1 5v30l-2 10-2 3-2 2-2 17-2-1 2-23 1-1 3-35 3-44 2-4z" fill="#CBA34E"/>
<path transform="translate(1009,428)" d="m0 0 3 1-4 4h-2l-1 7 4 27 3 14-1 3-6-9-6-18-3-3-6 2v-8l5-8 8-7z" fill="#AF7320"/>
<path transform="translate(463,573)" d="m0 0h1l1 60-1 124-3 2v-57l1-113z" fill="#C2994B"/>
<path transform="translate(579,1027)" d="m0 0 13 1-1 4-7 3-4-1-2-1-1 9 1 3 6 1-1 6-7-1-11-4-9-1v-1l6-1-1-9 2-4 8 1z" fill="#CCA44F"/>
<path transform="translate(398,1090)" d="m0 0 6 2 3 5h-2l-1 14-1 69-3 1-1 2-2-14 1-21v-7l1-10v-11l1-5v-22z" fill="#E6BB56"/>
<path transform="translate(981,506)" d="m0 0 2 1-5 5v8l4 20 4 9 5 3 5 1v1h-8l-10-6-6-8-2-5v-17l3-6z" fill="#CE9839"/>
<path transform="translate(1095,1754)" d="m0 0 29 1 48 1v1h-238l-2-2z" fill="#BA8D3F"/>
<path transform="translate(273,1555)" d="m0 0 2 2 2 62 7-1 72 1v2l-5 1-16 1-2 5-4-1-1 3-7-1-1-5 2-3h-23l-23-1-1-2-1-20z" fill="#BA9148"/>
<path transform="translate(672,1460)" d="m0 0h1v26l-1 35-1 46-2 41-2 4v-29l3-96 1-4z" fill="#D7B25E"/>
<path transform="translate(252,879)" d="m0 0h87v1l-85 2h-100l-4-2h67z" fill="#BA9148"/>
<path transform="translate(463,1353)" d="m0 0h1l1 14 2 4-1 11 1 2v26l-1 1 1 13v6l-2 6-1 24h-1z" fill="#D5A649"/>
<path transform="translate(380,1411)" d="m0 0h1l1 141-2-3-2-89 1-48z" fill="#CBA34E"/>
<path transform="translate(1166,437)" d="m0 0 4 5 1 4v11l-5 17-6 12-8 7-2-1 5-4 5-10 4-18z" fill="#B67B26"/>
<path transform="translate(516,1757)" d="m0 0h44v1l-62 2-46 1h-29v-1l25-2z" fill="#C29A4B"/>
<path transform="translate(1011,572)" d="m0 0 1 2-2 10-3 8v14l3 9 5 4 10 2-4 2h-7l-9-4-2-3 1-5 1-4-1-7v-5h-2l-2-9 3-3 5-4 1-4z" fill="#CE993B"/>
<path transform="translate(369,575)" d="m0 0 2 1-1 108-2-4v-100z" fill="#D0A64E"/>
<path transform="translate(462,758)" d="m0 0h1v97l-4 1 2-1-1-72 1-24z" fill="#CBA34E"/>
<path transform="translate(355,1091)" d="m0 0 8 6 15 11 4 3v15l-5 69-1 10h-1v-15l3-44 1-34-10-8-12-9z" fill="#B99048"/>
<path transform="translate(1136,448)" d="m0 0 1 3-5 17-1 6v13l3 4 3 1 13 1v1l-13 1-6-3-5-6-1-5 1-11 5-12z" fill="#BB822C"/>
<path transform="translate(574,1076)" d="m0 0h2l-1 7-2 7 4 6-2 4-7 10-1-4-2-7 1-9 2-4h2l3-9z" fill="#CCA44F"/>
<path transform="translate(580,654)" d="m0 0h3l1 17v7l1 3v7l-1 1 1 9v14h-1l-3-10v-8l-2-13z" fill="#E6BB56"/>
<path transform="translate(1025,552)" d="m0 0 5 1-2 5-14 12-6 2-1-4 6-9h2v-2z" fill="#66778C"/>
<path transform="translate(1489,655)" d="m0 0h1v27l-1 21-1 7-4-2 1-21v-16l2-6 1-9z" fill="#69788B"/>
<path transform="translate(672,1308)" d="m0 0 6 2 2 3v19l-2 45-1 14h-1l-1-10 1-30 1-17v-22l-6-2z" fill="#CCA555"/>
<path transform="translate(598,1447)" d="m0 0h1v27l-1 61h-2v-67l1-1z" fill="#D6B05C"/>
<path transform="translate(644,1310)" d="m0 0 29 1 2 1-1 5-5 3-14-2 1-3-2-1 1-2h-10z" fill="#65778D"/>
<path transform="translate(1214,1643)" d="m0 0h6l6 1h9l7-1 5 1 20 1v1l-8 1h-56l4-2h7z" fill="#CBA34E"/>
<path transform="translate(1040,560)" d="m0 0 2 2v12l-3 26-6 15-6 6h-2v-2h2v-2h2l2-5 4-13 2-14 1-13h2z" fill="#C08B35"/>
<path transform="translate(976,509)" d="m0 0 2 1-2 4h-2v14l1 5 1 7 1 3 5 4v2l9 3 5 1v1h-8l-10-6-6-8-2-5v-17l3-6z" fill="#BA9148"/>
<path transform="translate(183,1303)" d="m0 0h45l8 1v3l-6 2-4-2-6-1h-40l-5-1v-1z" fill="#65778C"/>
<path transform="translate(1032,443)" d="m0 0 3 4 5 17v26l-3 6h-3l2-2v-28l-3-18z" fill="#C69B4A"/>
<path transform="translate(421,1277)" d="m0 0 15 1 2 1 15 2v2l3 1-4 2-10-1-7-2h-6l-4-2-1-2h-3z" fill="#DCA845"/>
<path transform="translate(504,1615)" d="m0 0h29l33 1v2h-71l-4-2z" fill="#EFD27A"/>
<path transform="translate(1142,427)" d="m0 0h3l-1 6-6 13-2 4-3 1-1-9 2-6h2l2-4z" fill="#68788B"/>
<path transform="translate(1e3 434)" d="m0 0 2 1-1 5 4 27 3 14-1 3-6-9-5-16h3l3 10-2-18-1-5v-9z" fill="#D6A342"/>
<path transform="translate(1015,511)" d="m0 0 5 3 4 6 1 3v7l-4 8-3 2-1-8 2-10-2-8-2-1z" fill="#E0B658"/>
<path transform="translate(1016,541)" d="m0 0 2 2-5 6h-2l-2 4-8 6-4-1v-2l-2-1 1-2 8-4z" fill="#68788B"/>
<path transform="translate(560,1083)" d="m0 0v3l-10 7-7 6-9 13-1 14-2-4v-10l5-9 9-10 7-6 7-3z" fill="#D8B35F"/>
<path transform="translate(580,579)" d="m0 0h1v43l-2 4h-1v-36l1-10z" fill="#D8B460"/>
<path transform="translate(376,1027)" d="m0 0 4 1-5 3v2h-2l-2 4-9-1-4-2 1-3 12-3z" fill="#BA9149"/>
<path transform="translate(1e3 594)" d="m0 0h1l2 17 3 5 4 3 10 2-4 2h-7l-9-4-2-3 1-5 1-4-1-6z" fill="#D7A442"/>
<path transform="translate(1079,517)" d="m0 0h32l31 1 13 1v1l-27 1-20-2-29-1z" fill="#CCA44F"/>
<path transform="translate(579,1027)" d="m0 0 13 1-1 4-7 3-9-2-2-2z" fill="#D7A647"/>
<path transform="translate(1074,398)" d="m0 0h1l2 82 1 2h-4z" fill="#DAA948"/>
<path transform="translate(271,452)" d="m0 0h2l-2 6-4 1-4-1 4 10h3 5l2 3-2 3-5-2-4-2-5-8v-5l3-3z" fill="#BA9149"/>
<path transform="translate(758,1310)" d="m0 0h16l-1 5-12 1-5-2v-2l-15 1-1-2z" fill="#65778D"/>
<path transform="translate(712,1312)" d="m0 0h20l1 2-1 3h-6l-2-4-7 5-1 4h-2l-1-7-2-1z" fill="#65778C"/>
<path transform="translate(604,1074)" d="m0 0 2 1-5 5-14 11-12 11-7 11-1-3 8-11 2-3h2v-2l14-11z" fill="#B99048"/>
<path transform="translate(379,389)" d="m0 0m-1 1m-1 1 3 3-11 7-14 10-14 12-4 4-2-1 10-10 30-23h2z" fill="#CCA44F"/>
<path transform="translate(570,1310)" d="m0 0h1l1 51-1 9-2 1v-24z" fill="#C8A04F"/>
<path transform="translate(373,867)" d="m0 0h9l7 2 1-2 1 4-8 4h-3l-6-3z" fill="#BA9148"/>
<path transform="translate(401,1213)" d="m0 0 2 1-2 6-5 6-3 1-3-1v-5l8-6z" fill="#E5BA56"/>
<path transform="translate(431,565)" d="m0 0 15 3 6 1v2l-15-1-20-2 1-2z" fill="#D9B561"/>
<path transform="translate(310,452)" d="m0 0v3l-13 14-10 6-3 1h-9l-5-3 1-2 4 2h9l10-5 8-7 7-8z" fill="#BA9149"/>
<path transform="translate(1119,761)" d="m0 0 9 1v2l9 1v1l-12 1v2l-5 2v-2h-2v-7z" fill="#6A798A"/>
<path transform="translate(675,575)" d="m0 0h16l6 1v4l-3 1-17-3-2-1z" fill="#65778D"/>
<path transform="translate(398,1090)" d="m0 0 6 2 3 5h-2l-1 14-3 2-1-9v-11z" fill="#E4BA59"/>
<path transform="translate(398,1149)" d="m0 0h1l-1 20-2 1-1-5-2-1v-10z" fill="#DFBC68"/>
<path transform="translate(576,1063)" d="m0 0 1 3-2 7-4 2-9 9-5 2h-3l11-9 6-8 3-5z" fill="#CCA44F"/>
<path transform="translate(672,1308)" d="m0 0 6 2 2 3v19l-1 22h-1l-1-42-6-2z" fill="#D6B25E"/>
<path transform="translate(1123,530)" d="m0 0 11 1 6 3v3h-3l-3-2-1 2-5-1-6-3z" fill="#CDA550"/>
<path transform="translate(1049,355)" d="m0 0 8 1 3 2v2l-8 3h-3l-4-2-1-3 5-1z" fill="#DFBC68"/>
<path transform="translate(443,1758)" d="m0 0h23l-1 2-13 1h-29v-1z" fill="#B98E45"/>
<path transform="translate(566,1026)" d="m0 0h11l2 2-8 5-6-1-2-1-1 2v-4z" fill="#DDBA66"/>
<path transform="translate(1156,360)" d="m0 0 5 1 17 9 8 6-1 2-10-6-19-10z" fill="#EDD078"/>
<path transform="translate(598,1447)" d="m0 0h1v27l-1 16h-2v-22l1-1z" fill="#D7B25E"/>
<path transform="translate(369,575)" d="m0 0 2 1-1 33-2 1v-30z" fill="#D1A54B"/>
<path transform="translate(605,1310)" d="m0 0h15l-1 2-6 1-2-1-1 3-5 3h-2v-7z" fill="#66778C"/>
<path transform="translate(669,1580)" d="m0 0h1l-1 28-2 4v-29z" fill="#D7B35E"/>
<path transform="translate(212,1303)" d="m0 0h16l8 1v3l-6 2-4-2-6-1v-2h-8z" fill="#6D7A89"/>
<path transform="translate(895,568)" d="m0 0h1l4 19 4 9 3 10 1 4-3-3-5-13-3-9-3-16z" fill="#C69E50"/>
<path transform="translate(997,442)" d="m0 0h2l1 2v7l-1 5-6-3 1-7z" fill="#BA9149"/>
<path transform="translate(674,1637)" d="m0 0h12v2l-2 1-1 3h-6l-2-1h-4l1-4z" fill="#F7DC84"/>
<path transform="translate(568,1213)" d="m0 0 2 1v11l-1 2-10-1 4-4 4-1v-6z" fill="#DCB864"/>
<path transform="translate(541,1099)" d="m0 0v3l-7 10-1 14-2-4v-10l5-9z" fill="#D9B561"/>
<path transform="translate(1439,730)" d="m0 0 14 2 17 5-3 1-8-2-17-2z" fill="#65778C"/>
<path transform="translate(1251,464)" d="m0 0 3 4 6 19 2 8-1 4-6-20-4-10z" fill="#D0A54C"/>
<path transform="translate(470,982)" d="m0 0h2v3h2l-1 4-5 5-3 1 1-6z" fill="#69788A"/>
<path transform="translate(916,624)" d="m0 0 3 1 8 12 7 9 2 4-7-6-13-18z" fill="#D0AA57"/>
<path transform="translate(1447,548)" d="m0 0h32v1l-16 2-8-1h-8z" fill="#67778B"/>
<path transform="translate(1034,554)" d="m0 0 5 1 1 1v16h-1l-1-11-7 1 2-4 3-2z" fill="#E1B756"/>
<path transform="translate(391,356)" d="m0 0 2 1-3 5-2 2-11 1 4-4z" fill="#D1A246"/>
<path transform="translate(978,682)" d="m0 0 5 1 9 3 2 2 7 2 2 4-15-6-10-5z" fill="#D9B561"/>
<path transform="translate(1e3 459)" d="m0 0h3l3 12v3h2l1 4h2l1 6-4-4-5-10z" fill="#BD9449"/>
<path transform="translate(645,424)" d="m0 0h16v2l-16 1-11 1 4-3z" fill="#6F7B88"/>
<path transform="translate(615,575)" d="m0 0h11l-3 2-3 1-2 3h-3l-1 4h-1v-9z" fill="#67778C"/>
<path transform="translate(1015,511)" d="m0 0 5 3 4 6 1 3v7l-3 6-1-3 1-10-4-8-3-2z" fill="#B8893D"/>
<path transform="translate(1e3 615)" d="m0 0 4 3 17 3-4 2h-7l-9-4-2-3z" fill="#BD9042"/>
<path transform="translate(373,567)" d="m0 0h14l-4 3-13 2z" fill="#D8B25D"/>
<path transform="translate(375,1074)" d="m0 0 4 2 9 8 3 2-3 1-6-3-7-8z" fill="#CCA44F"/>
<path transform="translate(379,389)" d="m0 0m-1 1m-1 1 3 3-11 7-6 4-2-1 14-11h2z" fill="#D4AA51"/>
<path transform="translate(465,1191)" d="m0 0 6 1-4 1-1 3-12 3v-2z" fill="#6B798A"/>
<path transform="translate(1034,604)" d="m0 0 3 1-4 10-6 6h-2v-2h2v-2h2l2-5z" fill="#BF8A34"/>
<path transform="translate(271,452)" d="m0 0h2l-2 6-4 1-5-1 2-4z" fill="#AE7220"/>
<path transform="translate(1105,583)" d="m0 0h1l1 26h-2l-1-13z" fill="#D4AE59"/>
<path transform="translate(980,537)" d="m0 0 2 3 4 9 4 3-5-1-3-2v-2l-3-1-1-3z" fill="#DEAD4B"/>
<path transform="translate(1007,577)" d="m0 0h2l-2 4-4 3h-2l-1 4-4 1 2-5 8-6z" fill="#B48235"/>
<path transform="translate(737,576)" d="m0 0h8l-4 3-6 6v-7z" fill="#65778D"/>
<path transform="translate(976,509)" d="m0 0 2 1-2 4h-2l-1 8h-2l-1-4 3-6z" fill="#B07522"/>
<path transform="translate(981,506)" d="m0 0 2 1-5 5v12l-3-4 1-9z" fill="#E2B85A"/>
<path transform="translate(1202,389)" d="m0 0 8 6 6 7-1 2-5-5v-2h-2v-2l-4-2-3-3z" fill="#DCB55A"/>
<path transform="translate(368,1057)" d="m0 0h3l1 7 4 8v2h-2l-5-11z" fill="#BD944A"/>
<path transform="translate(908,610)" d="m0 0h2l6 10-1 4-6-10z" fill="#CCA454"/>
<path transform="translate(1167,1608)" d="m0 0 4 1v3 2h-7l1-4h2z" fill="#CCA44F"/>
<path transform="translate(579,1052)" d="m0 0h3l-1 6-3 5-3 1 2-5z" fill="#BB9249"/>
<path transform="translate(1013,424)" d="m0 0 2 1zm-1 1m-4 1 11 1 3 3-5-1h-8-3v-2z" fill="#9F8F6C"/>
<path transform="translate(567,1597)" d="m0 0 5 1-2 7h-3z" fill="#F9DF86"/>
<path transform="translate(572,1072)" d="m0 0m-1 1m-1 1m-1 1m-1 1m-1 1m-1 1m-1 1m-3 1 3 1-4 3-5 3-2-1z" fill="#D4A84D"/>
<path transform="translate(1028,432)" d="m0 0 5 2 1 7-3-1-3-5z" fill="#68788B"/>
<path transform="translate(269,468)" d="m0 0h6l2 3-2 3-6-3z" fill="#AF711D"/>
<path transform="translate(537,1190)" d="m0 0h2l1 6-5-1-1-4z" fill="#9E7F4F"/>
<path transform="translate(1e3 692)" d="m0 0 8 2 5 3-3 1-10-4z" fill="#DCB864"/>
</svg>
